<svg xmlns="http://www.w3.org/2000/svg" width="78" height="76" fill="none" viewBox="0 0 78 76"><path fill="#81B3D2" d="M74.44 22.12h-30c16.72-6.8 18.08-11.1 17.46-13.5-1.35-3.9-6.88-6.9-12.05-5.3-6.76 2.1-8.6 10.3-10.45 16.2-2.33-6-4.55-13.6-9.83-17.5a10.21 10.21 0 0 0-7.01-2c-4.92.4-11.93 5.3-8.98 10.8 2.7 5.3 11.68 8.7 17.7 11.4H3.88c-1.97 0-3.44 1.3-3.44 2.8v11.2c0 1.6 1.6 2.8 3.44 2.8h.37v36h70.08v-36h.12c1.97 0 3.45-1.3 3.45-2.8v-11.2c0-1.6-1.6-2.9-3.45-2.9ZM51.82 5.82c2.58-.3 6.02 1.3 6.4 3.2.48 2.7-4.06 5.2-6.15 6.3-3.08 1.7-6.03 2.6-8.86 4 .99-3.7 3.08-12.9 8.61-13.5Zm-27.79 9.8c-2.7-1.5-7.87-4.4-7.74-7.7.12-3.6 7-6.5 10.7-3.8 4.67 3.3 6.88 11 8.6 16.4-3.93-1.6-7.62-2.8-11.56-4.9Zm7.26 56.4H7.8v-33H31.3v33Zm0-36H4.1v-10.9H31.3v10.9Zm12.3 36h-8.74v-46.9h8.73v46.9Zm27.04 0H47.27v-33h23.48v33h-.12Zm3.57-36H47.27v-10.9H74.2v10.9Z"/></svg>