<svg xmlns="http://www.w3.org/2000/svg" width="81" height="73" fill="none" viewBox="0 0 81 73"><path fill="#81B3D2" d="M31.96 65.3h17.02V41.4H31.96v23.9Zm13.93-2.9H35.04V44.3H45.8v18.1h.1Z"/><path fill="#81B3D2" d="m77.8 39.4 2.24-2.1-10.53-9.9V.4H54.83v13.2L40.26 0 .57 37.4l2.24 2.1 8.3-7.8v37.8H6.96v2.9h67.98v-2.9H69.5V31.6l8.3 7.8Zm-19.89-36h8.4v21.1l-8.4-7.9V3.4Zm8.52 66H14.3V28.7L40.26 4.2l26.06 24.5v40.7h.1Z"/><path fill="#81B3D2" d="M32.28 27.2c0 4.3 3.72 7.8 8.19 7.8 4.57 0 8.3-3.5 8.3-7.8s-3.73-7.7-8.3-7.7c-4.58 0-8.2 3.4-8.2 7.7Zm8.19-5c2.87 0 5.32 2.2 5.32 5 0 2.7-2.34 5-5.32 5-2.87 0-5.32-2.2-5.32-5 0-2.7 2.45-5 5.32-5ZM21.74 41.4h-3.19v3.9h3.2v-3.9ZM28.02 41.4h-3.19v3.9h3.2v-3.9ZM21.74 47.4h-3.19v3.9h3.2v-3.9ZM28.02 47.4h-3.19v3.9h3.2v-3.9ZM55.68 41.4h-3.2v3.9h3.2v-3.9ZM62.06 41.4h-3.19v3.9h3.2v-3.9ZM55.68 47.4h-3.2v3.9h3.2v-3.9ZM62.06 47.4h-3.19v3.9h3.2v-3.9Z"/></svg>