<svg xmlns="http://www.w3.org/2000/svg" width="74" height="69" fill="none" viewBox="0 0 74 69"><path fill="#81B3D2" d="M69.05 46H4.26c-2.3 0-4.12 2-4.12 4.3v3.5c0 2.3 1.82 4.2 4.12 4.2h.96v1c0 5.5 4.31 9.9 9.49 9.9h43.9c5.27 0 9.49-4.5 9.49-9.9v-1h.95c2.2 0 4.13-1.9 4.13-4.3v-3.5c0-2.2-1.83-4.2-4.13-4.2Zm-3.73 13c0 3.8-2.97 6.9-6.62 6.9H14.61C10.97 65.9 8 62.8 8 59v-1h57.32v1Zm4.98-5.3c0 .7-.57 1.3-1.25 1.3H4.26a1.3 1.3 0 0 1-1.24-1.3v-3.5c0-.6.57-1.2 1.24-1.2h64.89c.67 0 1.25.6 1.25 1.3v3.4h-.1ZM15.67 37.9l5.17 4 5.28-4 5.27 4 5.27-4 5.17 4 5.28-4 5.27 4 5.27-4 5.27 4 6.04-4.7-1.63-2.4-4.41 3.3-5.27-4-5.27 4-5.27-4-5.28 4-5.17-4-5.27 4-5.27-4-5.28 4-5.17-4-5.27 4-4.41-3.3-1.73 2.4 6.14 4.7 5.27-4ZM68.1 31.1c0-.6.1-2.6 0-3C67.42 12.5 53.62 0 36.66 0 19.69 0 5.8 12.5 5.12 28.1v3H68.1ZM36.66 3c15.33 0 27.99 11.2 28.56 25.1H8C8.67 14.2 21.32 3 36.66 3Z"/><path fill="#81B3D2" d="M36.66 17c1.06 0 1.92-.9 1.92-2s-.86-2-1.92-2-1.92.9-1.92 2 .86 2 1.92 2ZM28.99 12.1c1.06 0 1.92-.9 1.92-2s-.86-2-1.92-2-1.92.9-1.92 2 .86 2 1.92 2ZM44.33 12.1c1.05 0 1.91-.9 1.91-2s-.86-2-1.91-2c-1.06 0-1.92.9-1.92 2s.86 2 1.92 2Z"/></svg>